<svg xmlns="http://www.w3.org/2000/svg" xmlns:xlink="http://www.w3.org/1999/xlink" width="96px" height="96px">

    <path fill-rule="evenodd" fill="rgb(255, 255, 255)" d="M35.561,31.648 L33.436,49.523 L35.811,49.773 L37.686,33.835 L57.561,33.835 L59.436,49.773 L61.811,49.523 L59.686,31.648 L35.561,31.648 ZM39.623,37.648 L55.623,37.648 L55.623,35.648 L39.623,35.648 L39.623,37.648 ZM39.623,41.648 L55.623,41.648 L55.623,39.648 L39.623,39.648 L39.623,41.648 ZM39.623,45.648 L55.623,45.648 L55.623,43.648 L39.623,43.648 L39.623,45.648 ZM39.623,49.648 L55.623,49.648 L55.623,47.648 L39.623,47.648 L39.623,49.648 ZM62.623,51.648 C62.894,51.648 63.97,51.741 63.232,51.929 C63.368,52.116 63.394,52.335 63.311,52.585 L59.936,62.710 C59.852,62.960 59.680,63.179 59.420,63.366 C59.159,63.554 58.894,63.648 58.623,63.648 L36.623,63.648 C36.352,63.648 36.86,63.554 35.826,63.366 C35.565,63.179 35.394,62.960 35.311,62.710 L31.936,52.585 C31.852,52.335 31.878,52.116 32.14,51.929 C32.149,51.741 32.352,51.648 32.623,51.648 L62.623,51.648 ZM51.623,53.648 L43.623,53.648 L43.623,55.648 L51.623,55.648 L51.623,53.648 Z"/>

</svg>
